# xmcd
#
# Track frame offsets:
#	150
#	22743
#	56207
#	85170
#	103833
#	110540
#	124204
#	153079
#	199075
#	220520
#	237089
#	265053
#
# Disc length: 3968 seconds
#
# Revision: 1
# Processed by: cddbd v1.5.2PL0 Copyright (c) Steve Scherf et al.
# Submitted via: audiograbber 1.83.01
#
DISCID=980f7e0c
DTITLE=Grateful Dead - 78-11-21A Community War Memorial, Rochester NY
DYEAR=1900
DGENRE=
TTITLE0=Promised Land
TTITLE1=They Love Each Other
TTITLE2=Cassidy
TTITLE3=Dire Wolf
TTITLE4=Funiculi Funicula
TTITLE5=Me and My Uncle
TTITLE6=Big River
TTITLE7=Row Jimmy
TTITLE8=New Minglewood Blues
TTITLE9=Loser
TTITLE10=Jack Straw
TTITLE11=Deal
EXTD=
EXTT0=
EXTT1=
EXTT2=
EXTT3=
EXTT4=
EXTT5=
EXTT6=
EXTT7=
EXTT8=
EXTT9=
EXTT10=
EXTT11=
PLAYORDER=
